<svg width="1024" height="1024" viewBox="0 0 1024 1024" xmlns="http://www.w3.org/2000/svg">
  <defs>
    <linearGradient id="coral" x1="0" y1="0" x2="1024" y2="1024" gradientUnits="userSpaceOnUse">
      <stop offset="0" stop-color="#FF8A5C"/>
      <stop offset="1" stop-color="#E14B2E"/>
    </linearGradient>
  </defs>

  <!-- 背景（iOSが角丸マスクするのでフルブリード） -->
  <rect width="1024" height="1024" fill="url(#coral)"/>

  <!-- 白いハート（Material favorite を拡大配置） -->
  <g transform="translate(152,118) scale(30)">
    <path fill="#FFFFFF"
      d="M12 21.35l-1.45-1.32C5.4 15.36 2 12.28 2 8.5 2 5.42 4.42 3 7.5 3c1.74 0 3.41.81 4.5 2.09C13.09 3.81 14.76 3 16.5 3 19.58 3 22 5.42 22 8.5c0 3.78-3.4 6.86-8.55 11.54L12 21.35z"/>
  </g>

  <!-- 右下のティール「¥」コイン -->
  <g>
    <circle cx="760" cy="726" r="176" fill="#0F9488"/>
    <circle cx="760" cy="726" r="176" fill="none" stroke="#FFFFFF" stroke-opacity="0.25" stroke-width="10"/>
    <!-- ¥（白ストローク） -->
    <g stroke="#FFFFFF" stroke-width="34" stroke-linecap="round" fill="none">
      <line x1="700" y1="648" x2="760" y2="722"/>
      <line x1="820" y1="648" x2="760" y2="722"/>
      <line x1="760" y1="722" x2="760" y2="804"/>
      <line x1="706" y1="742" x2="814" y2="742"/>
      <line x1="706" y1="772" x2="814" y2="772"/>
    </g>
  </g>
</svg>
